<svg xmlns="http://www.w3.org/2000/svg" viewBox="0 0 128 128" role="img" aria-label="Narrarium ghost icon">
  <defs>
    <linearGradient id="bg" x1="18" y1="14" x2="111" y2="115" gradientUnits="userSpaceOnUse">
      <stop offset="0" stop-color="#0f6c63" />
      <stop offset="1" stop-color="#d08a41" />
    </linearGradient>
    <linearGradient id="ghost" x1="42" y1="24" x2="86" y2="104" gradientUnits="userSpaceOnUse">
      <stop offset="0" stop-color="#ffffff" />
      <stop offset="1" stop-color="#dcebe9" />
    </linearGradient>
  </defs>
  <rect width="128" height="128" rx="30" fill="url(#bg)" />
  <path d="M64 20c-18.6 0-32 14.7-32 34.9v27.4c0 7.8 1.7 15.3 4.9 21.7l11.4-9.3 9.7 9.3 8.4-9.3 9.7 9.3 9.7-9.3 10.9 9.3c3.4-6.4 5.3-14 5.3-22V54.9C102 34.7 84.4 20 64 20Z" fill="url(#ghost)" />
  <circle cx="53" cy="58" r="5.5" fill="#163332" />
  <circle cx="75" cy="58" r="5.5" fill="#163332" />
  <path d="M57 74c3.3 3.6 7.4 5.4 12.4 5.4 4.4 0 8.2-1.3 11.3-3.9" fill="none" stroke="#163332" stroke-linecap="round" stroke-width="4.2" />
  <path d="m78.3 76.8 16.9-13.9 5.5 6.7-15 15.4-10 3.4 2.6-11.6Z" fill="#f4d7a8" />
  <path d="m87 71.4 8.2-8.5 5.5 6.7-7.8 8.1Z" fill="#d08a41" />
  <path d="m75.9 88.4 10-3.4 4.3 5.3-14.7 4.9Z" fill="#5b3520" opacity=".88" />
</svg>
